<svg xmlns="http://www.w3.org/2000/svg" viewBox="0 0 64 64" width="64" height="64">
  <!-- Coffee cup with simplified Scala logo pattern (three curved lines) -->
  
  <!-- Coffee cup steam (three wavy lines) -->
  <path d="M 24 8 Q 22 10, 24 12" stroke="#000" stroke-width="2" fill="none" stroke-linecap="round"/>
  <path d="M 32 8 Q 30 10, 32 12" stroke="#000" stroke-width="2" fill="none" stroke-linecap="round"/>
  <path d="M 40 8 Q 38 10, 40 12" stroke="#000" stroke-width="2" fill="none" stroke-linecap="round"/>
  
  <!-- Coffee cup body -->
  <path d="M 18 18 L 22 46 Q 22 50, 26 50 L 38 50 Q 42 50, 42 46 L 46 18 L 18 18 Z" 
        fill="none" stroke="#000" stroke-width="2.5" stroke-linejoin="round"/>
  
  <!-- Coffee cup handle -->
  <path d="M 46 24 Q 54 24, 54 32 Q 54 40, 46 40" 
        fill="none" stroke="#000" stroke-width="2.5" stroke-linecap="round"/>
  
  <!-- Scala inspired spiral pattern (3 curved lines) -->
  <path d="M 26 28 Q 32 28, 38 28" stroke="#000" stroke-width="2" fill="none" stroke-linecap="round"/>
  <path d="M 26 33 Q 32 33, 38 33" stroke="#000" stroke-width="2" fill="none" stroke-linecap="round"/>
  <path d="M 26 38 Q 32 38, 38 38" stroke="#000" stroke-width="2" fill="none" stroke-linecap="round"/>
  
  <!-- Saucer -->
  <line x1="14" y1="54" x2="50" y2="54" stroke="#000" stroke-width="2.5" stroke-linecap="round"/>
</svg>
